<svg id="visual" viewBox="0 0 900 600" width="900" height="600" xmlns="http://www.w3.org/2000/svg" xmlns:xlink="http://www.w3.org/1999/xlink" version="1.1"><rect x="0" y="0" width="900" height="600" fill="#001220"></rect><defs><linearGradient id="grad1_0" x1="33.3%" y1="0%" x2="100%" y2="100%"><stop offset="20%" stop-color="#001220" stop-opacity="1"></stop><stop offset="80%" stop-color="#001220" stop-opacity="1"></stop></linearGradient></defs><defs><linearGradient id="grad2_0" x1="0%" y1="0%" x2="66.7%" y2="100%"><stop offset="20%" stop-color="#001220" stop-opacity="1"></stop><stop offset="80%" stop-color="#001220" stop-opacity="1"></stop></linearGradient></defs><g transform="translate(900, 0)"><path d="M0 486.7C-63.4 469 -126.8 451.2 -173 417.6C-219.1 384 -248.1 334.5 -297 297C-345.9 259.4 -414.7 233.8 -449.7 186.3C-484.7 138.8 -485.7 69.4 -486.7 0L0 0Z" fill="#FBAE3C"></path></g><g transform="translate(0, 600)"><path d="M0 -486.7C60 -467.9 120 -449 176 -425C232.1 -400.9 284.2 -371.7 332.3 -332.3C380.5 -292.9 424.6 -243.4 449.7 -186.3C474.8 -129.2 480.8 -64.6 486.7 0L0 0Z" fill="#FBAE3C"></path></g></svg>