<svg id="visual" viewBox="0 0 900 600" width="900" height="600" xmlns="http://www.w3.org/2000/svg" xmlns:xlink="http://www.w3.org/1999/xlink" version="1.1"><rect x="0" y="0" width="900" height="600" fill="#FBAE3C"></rect><defs><linearGradient id="grad1_0" x1="33.3%" y1="0%" x2="100%" y2="100%"><stop offset="20%" stop-color="#fbae3c" stop-opacity="1"></stop><stop offset="80%" stop-color="#fbae3c" stop-opacity="1"></stop></linearGradient></defs><defs><linearGradient id="grad2_0" x1="0%" y1="0%" x2="66.7%" y2="100%"><stop offset="20%" stop-color="#fbae3c" stop-opacity="1"></stop><stop offset="80%" stop-color="#fbae3c" stop-opacity="1"></stop></linearGradient></defs><g transform="translate(900, 0)"><path d="M0 486.7C-51.6 447 -103.2 407.3 -159.6 385.3C-216 363.3 -277.3 359 -329.5 329.5C-381.8 300 -425 245.4 -449.7 186.3C-474.4 127.2 -480.6 63.6 -486.7 0L0 0Z" fill="#001220"></path></g><g transform="translate(0, 600)"><path d="M0 -486.7C45.2 -440.7 90.3 -394.6 157.3 -379.7C224.2 -364.9 313 -381.2 344.2 -344.2C375.4 -307.1 348.9 -216.7 363.1 -150.4C377.2 -84.1 432 -42.1 486.7 0L0 0Z" fill="#001220"></path></g></svg>